<svg width="585" height="91" viewBox="0 0 585 91" fill="none" xmlns="http://www.w3.org/2000/svg">
<g clip-path="url(#clip0_63_2)">
<path d="M107.98 51.7999H107.59L107.98 25.9599H86.95V89.9599H106.94L107.46 59.7099C107.46 49.0699 123.3 40.2399 139.27 43.9999V23.8899C118.89 23.8899 111.1 39.9799 107.98 51.7999Z" fill="black"/>
<path d="M150.65 42.32H196.74V43.23C180.9 49.33 144.03 48.55 144.03 71.66C144.03 82.05 152.86 91 164.67 91C178.95 91 190.76 78.02 195.96 62.83H196.35V89.96H214.14V25.96H150.66V42.32H150.65ZM195.57 60.63C189.73 69.59 178.56 76.34 171.03 76.34C167.01 76.34 164.15 74.26 164.15 70.63C164.15 63.36 186.35 62.32 195.57 58.82V60.63Z" fill="black"/>
<path d="M248.8 13.5H259.83V0H229.46V25.96H222.58V41.93H229.46V89.97H248.8V41.93H271.39V25.96H248.8V13.5Z" fill="black"/>
<path d="M306.31 56.34V41.93H316.31V25.96H306.18V0H285.8V25.96H279.05V41.93H285.8L285.93 62.7C285.93 81 297.74 89.96 312.93 89.96H320.2V71.79L316.69 71.66C312.02 71.66 306.31 69.07 306.31 56.34Z" fill="black"/>
<path d="M365.73 23.6299C347.04 23.6299 327.69 34.5399 327.69 57.7699C327.69 76.5899 340.67 90.9999 367.54 90.9999C390.52 90.9999 399.99 80.9999 404.02 73.8599L383.77 67.4999C381.56 70.6199 376.89 74.5099 367.54 74.5099C358.58 74.5099 348.98 70.3599 348.98 62.8299L404.02 62.6999C406.49 35.4399 385.85 23.6299 365.73 23.6299ZM348.85 50.4999C349.89 43.3599 358.46 39.8499 366.38 39.8499C374.69 39.8499 383.91 43.2199 384.94 50.4999H348.85Z" fill="black"/>
<path d="M468.12 23.8899C447.22 23.8899 437.61 38.0399 435.53 50.4999H434.88L435.53 25.9599H414.63V89.9599H434.49L435.01 59.9699C435.4 51.7899 441.37 39.7199 456.3 39.7199C466.3 39.7199 473.83 45.9499 473.83 56.8599L473.96 89.9599H495.25L494.99 50.4899C494.99 33.0999 483.18 23.8899 468.12 23.8899Z" fill="black"/>
<path d="M584.83 89.97L584.7 0H564.45L565.23 49.07H564.71C560.95 32.06 547.57 23.88 534.72 23.88C519.79 23.88 504.73 34.53 504.73 57.37C504.73 80.21 519.53 91 534.2 91C546.92 91 560.94 82.69 564.71 65.68H565.23L565.1 89.96H584.83V89.97ZM543.68 73.87C529.01 73.87 522.13 66.34 522.13 57.38C522.13 49.46 529.01 40.76 543.68 40.76C557.18 40.76 564.58 48.55 564.58 57.38C564.58 66.34 557.18 73.87 543.68 73.87Z" fill="black"/>
<path d="M74.58 25.95L49.95 25.97L30.35 50.47C30.35 50.47 18.71 64.1 19.17 80.97H18.47L18.69 53.09V0H0V89.97H19.18L37.12 66.86L55.52 89.97H81.32L51.97 53.99L74.58 25.95Z" fill="black"/>
</g>
<defs>
<clipPath id="clip0_63_2">
<rect width="584.83" height="91" fill="white"/>
</clipPath>
</defs>
</svg>
